<svg width="241" height="282" viewBox="0 0 241 282" fill="none" xmlns="http://www.w3.org/2000/svg">
<circle cx="10.3158" cy="10.3158" r="10.3158" transform="matrix(-1 0 0 1 206.316 123.79)" fill="#884A2C"/>
<circle cx="10.3158" cy="10.3158" r="10.3158" transform="matrix(-1 0 0 1 221.79 147)" fill="#884A2C"/>
<circle cx="10.3158" cy="10.3158" r="10.3158" transform="matrix(-1 0 0 1 247.579 147)" fill="#E7B66C"/>
<circle cx="10.3158" cy="10.3158" r="10.3158" transform="matrix(-1 0 0 1 252.737 43.8422)" fill="#E7B66C"/>
<circle cx="10.3158" cy="10.3158" r="10.3158" transform="matrix(-1 0 0 1 229.527 33.5262)" fill="#E7B66C"/>
<circle cx="10.3158" cy="10.3158" r="10.3158" transform="matrix(-1 0 0 1 203.737 28.3684)" fill="#E7B66C"/>
<circle cx="10.3158" cy="10.3158" r="10.3158" transform="matrix(-1 0 0 1 180.526 25.7894)" fill="#E7B66C"/>
<circle cx="10.3158" cy="10.3158" r="10.3158" transform="matrix(-1 0 0 1 154.737 28.3684)" fill="#E7B66C"/>
<circle cx="10.3158" cy="10.3158" r="10.3158" transform="matrix(-1 0 0 1 131.527 36.1052)" fill="#E7B66C"/>
<circle cx="10.3158" cy="10.3158" r="10.3158" transform="matrix(-1 0 0 1 108.316 46.4211)" fill="#E7B66C"/>
<circle cx="10.3158" cy="10.3158" r="10.3158" transform="matrix(-1 0 0 1 90.2632 61.8948)" fill="#E7B66C"/>
<circle cx="10.3158" cy="10.3158" r="10.3158" transform="matrix(-1 0 0 1 72.2109 82.5262)" fill="#E7B66C"/>
<circle cx="10.3158" cy="10.3158" r="10.3158" transform="matrix(-1 0 0 1 59.3159 103.158)" fill="#E7B66C"/>
<circle cx="10.3158" cy="10.3158" r="10.3158" transform="matrix(-1 0 0 1 51.5791 128.947)" fill="#E7B66C"/>
<circle cx="10.3158" cy="10.3158" r="10.3158" transform="matrix(-1 0 0 1 46.4211 152.158)" fill="#E7B66C"/>
<circle cx="10.3158" cy="10.3158" r="10.3158" transform="matrix(-1 0 0 1 49.0002 177.947)" fill="#E7B66C"/>
<circle cx="10.3158" cy="10.3158" r="10.3158" transform="matrix(-1 0 0 1 54.1582 201.158)" fill="#E7B66C"/>
<circle cx="10.3158" cy="10.3158" r="10.3158" transform="matrix(-1 0 0 1 61.895 224.368)" fill="#E7B66C"/>
<circle cx="10.3158" cy="10.3158" r="10.3158" transform="matrix(-1 0 0 1 77.3687 245)" fill="#E7B66C"/>
<circle cx="10.3158" cy="10.3158" r="10.3158" transform="matrix(-1 0 0 1 95.4209 263.053)" fill="#E7B66C"/>
<circle cx="10.3158" cy="10.3158" r="10.3158" transform="matrix(-1 0 0 1 113.474 278.526)" fill="#E7B66C"/>
<circle cx="10.3158" cy="10.3158" r="10.3158" transform="matrix(-1 0 0 1 255.316 275.948)" fill="#E7B66C"/>
<circle cx="10.3158" cy="10.3158" r="10.3158" transform="matrix(-1 0 0 1 237.263 121.21)" fill="#E7B66C"/>
<circle cx="10.3158" cy="10.3158" r="10.3158" transform="matrix(-1 0 0 1 219.21 105.737)" fill="#E7B66C"/>
<circle cx="10.3158" cy="10.3158" r="10.3158" transform="matrix(-1 0 0 1 193.421 95.421)" fill="#E7B66C"/>
<circle cx="10.3158" cy="10.3158" r="10.3158" transform="matrix(-1 0 0 1 141.842 108.316)" fill="#E7B66C"/>
<circle cx="10.3158" cy="10.3158" r="10.3158" transform="matrix(-1 0 0 1 141.842 108.316)" fill="#E7B66C"/>
<circle cx="10.3158" cy="10.3158" r="10.3158" transform="matrix(-1 0 0 1 126.368 128.947)" fill="#E7B66C"/>
<circle cx="10.3158" cy="10.3158" r="10.3158" transform="matrix(-1 0 0 1 116.053 152.158)" fill="#E7B66C"/>
<circle cx="10.3158" cy="10.3158" r="10.3158" transform="matrix(-1 0 0 1 118.632 177.947)" fill="#E7B66C"/>
<circle cx="10.3158" cy="10.3158" r="10.3158" transform="matrix(-1 0 0 1 128.948 201.158)" fill="#E7B66C"/>
<circle cx="10.3158" cy="10.3158" r="10.3158" transform="matrix(-1 0 0 1 147 219.21)" fill="#E7B66C"/>
<circle cx="10.3158" cy="10.3158" r="10.3158" transform="matrix(-1 0 0 1 172.79 226.947)" fill="#E7B66C"/>
<circle cx="10.3158" cy="10.3158" r="10.3158" transform="matrix(-1 0 0 1 198.579 226.947)" fill="#E7B66C"/>
<circle cx="10.3158" cy="10.3158" r="10.3158" transform="matrix(-1 0 0 1 221.79 216.632)" fill="#E7B66C"/>
<circle cx="10.3158" cy="10.3158" r="10.3158" transform="matrix(-1 0 0 1 237.263 196)" fill="#E7B66C"/>
<circle cx="10.3158" cy="10.3158" r="10.3158" transform="matrix(-1 0 0 1 167.632 97.9999)" fill="#E7B66C"/>
<circle cx="10.3158" cy="10.3158" r="10.3158" transform="matrix(-1 0 0 1 167.632 97.9999)" fill="#E7B66C"/>
<circle cx="10.3158" cy="10.3158" r="10.3158" transform="matrix(-1 0 0 1 167.632 97.9999)" fill="#E7B66C"/>
<circle cx="10.3158" cy="10.3158" r="10.3158" transform="matrix(-1 0 0 1 167.632 97.9999)" fill="#E7B66C"/>
<circle cx="10.3158" cy="10.3158" r="10.3158" transform="matrix(-1 0 0 1 247.579 172.79)" fill="#E7B66C"/>
<circle cx="10.3158" cy="10.3158" r="10.3158" transform="matrix(-1 0 0 1 260.474 123.79)" fill="#D66C36"/>
<circle cx="10.3158" cy="10.3158" r="10.3158" transform="matrix(-1 0 0 1 247.579 100.579)" fill="#D66C36"/>
<circle cx="10.3158" cy="10.3158" r="10.3158" transform="matrix(-1 0 0 1 229.527 85.1053)" fill="#D66C36"/>
<circle cx="10.3158" cy="10.3158" r="10.3158" transform="matrix(-1 0 0 1 61.895 268.211)" fill="#D66C36"/>
<circle cx="10.3158" cy="10.3158" r="10.3158" transform="matrix(-1 0 0 1 61.895 268.211)" fill="#D66C36"/>
<circle cx="10.3158" cy="10.3158" r="10.3158" transform="matrix(-1 0 0 1 206.316 77.3685)" fill="#D66C36"/>
<circle cx="10.3158" cy="10.3158" r="10.3158" transform="matrix(-1 0 0 1 180.526 72.2104)" fill="#D66C36"/>
<circle cx="10.3158" cy="10.3158" r="10.3158" transform="matrix(-1 0 0 1 154.737 77.3685)" fill="#D66C36"/>
<circle cx="10.3158" cy="10.3158" r="10.3158" transform="matrix(-1 0 0 1 131.527 87.6842)" fill="#D66C36"/>
<circle cx="10.3158" cy="10.3158" r="10.3158" transform="matrix(-1 0 0 1 113.474 105.737)" fill="#D66C36"/>
<circle cx="10.3158" cy="10.3158" r="10.3158" transform="matrix(-1 0 0 1 100.579 126.368)" fill="#D66C36"/>
<circle cx="10.3158" cy="10.3158" r="10.3158" transform="matrix(-1 0 0 1 92.8423 152.158)" fill="#D66C36"/>
<circle cx="10.3158" cy="10.3158" r="10.3158" transform="matrix(-1 0 0 1 95.4209 177.947)" fill="#D66C36"/>
<circle cx="10.3158" cy="10.3158" r="10.3158" transform="matrix(-1 0 0 1 103.158 201.158)" fill="#D66C36"/>
<circle cx="10.3158" cy="10.3158" r="10.3158" transform="matrix(-1 0 0 1 118.632 221.79)" fill="#D66C36"/>
<circle cx="10.3158" cy="10.3158" r="10.3158" transform="matrix(-1 0 0 1 136.684 239.842)" fill="#D66C36"/>
<circle cx="10.3158" cy="10.3158" r="10.3158" transform="matrix(-1 0 0 1 159.895 247.579)" fill="#D66C36"/>
<circle cx="10.3158" cy="10.3158" r="10.3158" transform="matrix(-1 0 0 1 185.685 250.158)" fill="#D66C36"/>
<circle cx="10.3158" cy="10.3158" r="10.3158" transform="matrix(-1 0 0 1 208.895 247.579)" fill="#D66C36"/>
<circle cx="10.3158" cy="10.3158" r="10.3158" transform="matrix(-1 0 0 1 232.106 237.263)" fill="#D66C36"/>
<circle cx="10.3158" cy="10.3158" r="10.3158" transform="matrix(-1 0 0 1 250.158 216.632)" fill="#D66C36"/>
<circle cx="10.3158" cy="10.3158" r="10.3158" transform="matrix(-1 0 0 1 221.79 172.79)" fill="#884A2C"/>
<circle cx="10.3158" cy="10.3158" r="10.3158" transform="matrix(-1 0 0 1 211.474 196)" fill="#884A2C"/>
<circle cx="10.3158" cy="10.3158" r="10.3158" transform="matrix(-1 0 0 1 185.685 203.737)" fill="#884A2C"/>
<circle cx="10.3158" cy="10.3158" r="10.3158" transform="matrix(-1 0 0 1 172.79 273.368)" fill="#884A2C"/>
<circle cx="10.3158" cy="10.3158" r="10.3158" transform="matrix(-1 0 0 1 198.579 273.368)" fill="#884A2C"/>
<circle cx="10.3158" cy="10.3158" r="10.3158" transform="matrix(-1 0 0 1 221.79 265.631)" fill="#884A2C"/>
<circle cx="10.3158" cy="10.3158" r="10.3158" transform="matrix(-1 0 0 1 260.474 79.9474)" fill="#884A2C"/>
<circle cx="10.3158" cy="10.3158" r="10.3158" transform="matrix(-1 0 0 1 239.843 64.4736)" fill="#884A2C"/>
<circle cx="10.3158" cy="10.3158" r="10.3158" transform="matrix(-1 0 0 1 216.632 54.158)" fill="#884A2C"/>
<circle cx="10.3158" cy="10.3158" r="10.3158" transform="matrix(-1 0 0 1 190.842 51.579)" fill="#884A2C"/>
<circle cx="10.3158" cy="10.3158" r="10.3158" transform="matrix(-1 0 0 1 167.632 51.579)" fill="#FFF0D3"/>
<circle cx="10.3158" cy="10.3158" r="10.3158" transform="matrix(-1 0 0 1 144.421 56.7368)" fill="#884A2C"/>
<circle cx="10.3158" cy="10.3158" r="10.3158" transform="matrix(-1 0 0 1 121.211 67.0526)" fill="#884A2C"/>
<circle cx="10.3158" cy="10.3158" r="10.3158" transform="matrix(-1 0 0 1 103.158 85.1053)" fill="#884A2C"/>
<circle cx="10.3158" cy="10.3158" r="10.3158" transform="matrix(-1 0 0 1 87.6841 105.737)" fill="#884A2C"/>
<circle cx="10.3158" cy="10.3158" r="10.3158" transform="matrix(-1 0 0 1 77.3687 126.368)" fill="#884A2C"/>
<circle cx="10.3158" cy="10.3158" r="10.3158" transform="matrix(-1 0 0 1 69.6318 152.158)" fill="#884A2C"/>
<circle cx="10.3158" cy="10.3158" r="10.3158" transform="matrix(-1 0 0 1 79.9473 201.158)" fill="#884A2C"/>
<circle cx="10.3158" cy="10.3158" r="10.3158" transform="matrix(-1 0 0 1 90.2632 221.79)" fill="#884A2C"/>
<circle cx="10.3158" cy="10.3158" r="10.3158" transform="matrix(-1 0 0 1 105.737 242.421)" fill="#884A2C"/>
<circle cx="10.3158" cy="10.3158" r="10.3158" transform="matrix(-1 0 0 1 123.79 257.895)" fill="#884A2C"/>
<circle cx="10.3158" cy="10.3158" r="10.3158" transform="matrix(-1 0 0 1 149.579 268.211)" fill="#884A2C"/>
<circle cx="10.3158" cy="10.3158" r="10.3158" transform="matrix(-1 0 0 1 72.2109 177.947)" fill="#884A2C"/>
<circle cx="10.3158" cy="10.3158" r="10.3158" transform="matrix(-1 0 0 1 167.632 51.579)" fill="#884A2C"/>
<circle cx="10.3158" cy="10.3158" r="10.3158" transform="matrix(-1 0 0 1 245 255.316)" fill="#884A2C"/>
<circle cx="10.3158" cy="10.3158" r="10.3158" transform="matrix(-1 0 0 1 159.895 198.579)" fill="#884A2C"/>
<circle cx="10.3158" cy="10.3158" r="10.3158" transform="matrix(-1 0 0 1 141.842 177.947)" fill="#884A2C"/>
<circle cx="10.3158" cy="10.3158" r="10.3158" transform="matrix(-1 0 0 1 139.263 152.158)" fill="#884A2C"/>
<circle cx="10.3158" cy="10.3158" r="10.3158" transform="matrix(-1 0 0 1 154.737 128.947)" fill="#884A2C"/>
<circle cx="10.3158" cy="10.3158" r="10.3158" transform="matrix(-1 0 0 1 180.526 118.632)" fill="#884A2C"/>
<ellipse cx="170.211" cy="170.889" rx="25.7895" ry="26.4681" fill="#D66C36"/>
<circle cx="10.3158" cy="10.3158" r="10.3158" transform="matrix(-1 0 0 1 23.2107 201.158)" fill="#D66C36"/>
<circle cx="10.3158" cy="10.3158" r="10.3158" transform="matrix(-1 0 0 1 23.2107 126.368)" fill="#D66C36"/>
<circle cx="10.3158" cy="10.3158" r="10.3158" transform="matrix(-1 0 0 1 33.5266 103.158)" fill="#D66C36"/>
<circle cx="10.3158" cy="10.3158" r="10.3158" transform="matrix(-1 0 0 1 56.7373 59.3158)" fill="#D66C36"/>
<circle cx="10.3158" cy="10.3158" r="10.3158" transform="matrix(-1 0 0 1 95.4209 25.7894)" fill="#D66C36"/>
<circle cx="10.3158" cy="10.3158" r="10.3158" transform="matrix(-1 0 0 1 118.632 12.8947)" fill="#D66C36"/>
<circle cx="10.3158" cy="10.3158" r="10.3158" transform="matrix(-1 0 0 1 141.842 5.15784)" fill="#D66C36"/>
<circle cx="10.3158" cy="10.3158" r="10.3158" transform="matrix(-1 0 0 1 167.632 0)" fill="#D66C36"/>
<circle cx="10.3158" cy="10.3158" r="10.3158" transform="matrix(-1 0 0 1 190.842 0)" fill="#D66C36"/>
<circle cx="10.3158" cy="10.3158" r="10.3158" transform="matrix(-1 0 0 1 216.632 5.15784)" fill="#D66C36"/>
<circle cx="10.3158" cy="10.3158" r="10.3158" transform="matrix(-1 0 0 1 242.421 12.8947)" fill="#D66C36"/>
<circle cx="10.3158" cy="10.3158" r="10.3158" transform="matrix(-1 0 0 1 74.7896 41.2631)" fill="#D66C36"/>
<circle cx="10.3158" cy="10.3158" r="10.3158" transform="matrix(-1 0 0 1 43.842 79.9474)" fill="#D66C36"/>
<circle cx="10.3158" cy="10.3158" r="10.3158" transform="matrix(-1 0 0 1 20.6316 149.579)" fill="#D66C36"/>
<circle cx="10.3158" cy="10.3158" r="10.3158" transform="matrix(-1 0 0 1 20.6316 177.947)" fill="#D66C36"/>
<circle cx="10.3158" cy="10.3158" r="10.3158" transform="matrix(-1 0 0 1 36.1052 224.368)" fill="#D66C36"/>
<circle cx="10.3158" cy="10.3158" r="10.3158" transform="matrix(-1 0 0 1 46.4211 247.579)" fill="#D66C36"/>
</svg>
