<svg xmlns="http://www.w3.org/2000/svg" xmlns:xlink="http://www.w3.org/1999/xlink" width="204" zoomAndPan="magnify" viewBox="0 0 153 30.000001" height="40" preserveAspectRatio="xMidYMid meet" version="1.0"><defs><clipPath id="f5627c0d84"><path d="M 5.371094 2.902344 L 28.597656 2.902344 L 28.597656 26.128906 L 5.371094 26.128906 Z M 5.371094 2.902344 " clip-rule="nonzero"/></clipPath><clipPath id="9619054e18"><path d="M 16.984375 2.902344 C 10.570312 2.902344 5.371094 8.101562 5.371094 14.515625 C 5.371094 20.929688 10.570312 26.128906 16.984375 26.128906 C 23.398438 26.128906 28.597656 20.929688 28.597656 14.515625 C 28.597656 8.101562 23.398438 2.902344 16.984375 2.902344 " clip-rule="nonzero"/></clipPath><clipPath id="f41416210c"><path d="M 124.402344 2.902344 L 147.628906 2.902344 L 147.628906 26.128906 L 124.402344 26.128906 Z M 124.402344 2.902344 " clip-rule="nonzero"/></clipPath><clipPath id="f8d53444e0"><path d="M 136.015625 2.902344 C 129.601562 2.902344 124.402344 8.101562 124.402344 14.515625 C 124.402344 20.929688 129.601562 26.128906 136.015625 26.128906 C 142.429688 26.128906 147.628906 20.929688 147.628906 14.515625 C 147.628906 8.101562 142.429688 2.902344 136.015625 2.902344 " clip-rule="nonzero"/></clipPath><clipPath id="7872de2e11"><path d="M 84.539062 2.902344 L 107.765625 2.902344 L 107.765625 26.128906 L 84.539062 26.128906 Z M 84.539062 2.902344 " clip-rule="nonzero"/></clipPath><clipPath id="4fe33e0f10"><path d="M 96.152344 2.902344 C 89.738281 2.902344 84.539062 8.101562 84.539062 14.515625 C 84.539062 20.929688 89.738281 26.128906 96.152344 26.128906 C 102.566406 26.128906 107.765625 20.929688 107.765625 14.515625 C 107.765625 8.101562 102.566406 2.902344 96.152344 2.902344 " clip-rule="nonzero"/></clipPath><clipPath id="bb3e445660"><path d="M 44.621094 2.902344 L 67.847656 2.902344 L 67.847656 26.128906 L 44.621094 26.128906 Z M 44.621094 2.902344 " clip-rule="nonzero"/></clipPath><clipPath id="3858f818f0"><path d="M 56.234375 2.902344 C 49.820312 2.902344 44.621094 8.101562 44.621094 14.515625 C 44.621094 20.929688 49.820312 26.128906 56.234375 26.128906 C 62.648438 26.128906 67.847656 20.929688 67.847656 14.515625 C 67.847656 8.101562 62.648438 2.902344 56.234375 2.902344 " clip-rule="nonzero"/></clipPath></defs><g clip-path="url(#f5627c0d84)"><g clip-path="url(#9619054e18)"><path fill="#b35154" d="M 5.371094 2.902344 L 28.597656 2.902344 L 28.597656 26.128906 L 5.371094 26.128906 Z M 5.371094 2.902344 " fill-opacity="1" fill-rule="nonzero"/></g></g><g clip-path="url(#f41416210c)"><g clip-path="url(#f8d53444e0)"><path fill="#696c6f" d="M 124.402344 2.902344 L 147.628906 2.902344 L 147.628906 26.128906 L 124.402344 26.128906 Z M 124.402344 2.902344 " fill-opacity="1" fill-rule="nonzero"/></g></g><g clip-path="url(#7872de2e11)"><g clip-path="url(#4fe33e0f10)"><path fill="#884a2c" d="M 84.539062 2.902344 L 107.765625 2.902344 L 107.765625 26.128906 L 84.539062 26.128906 Z M 84.539062 2.902344 " fill-opacity="1" fill-rule="nonzero"/></g></g><g clip-path="url(#bb3e445660)"><g clip-path="url(#3858f818f0)"><path fill="#d66c36" d="M 44.621094 2.902344 L 67.847656 2.902344 L 67.847656 26.128906 L 44.621094 26.128906 Z M 44.621094 2.902344 " fill-opacity="1" fill-rule="nonzero"/></g></g></svg>