<svg xmlns="http://www.w3.org/2000/svg" xmlns:xlink="http://www.w3.org/1999/xlink" width="500" zoomAndPan="magnify" viewBox="0 0 375 227.249992" height="303" preserveAspectRatio="xMidYMid meet" version="1.0"><defs><g/></defs><g fill="#d9d9d9" fill-opacity="0.4"><g transform="translate(5.840153, 188.683935)"><g><path d="M 12.636719 -144.417969 L 39.714844 -144.417969 L 39.714844 -0.542969 L 12.636719 -0.542969 Z M 12.636719 -144.417969 "/></g></g></g><g fill="#d9d9d9" fill-opacity="0.4"><g transform="translate(58.190231, 188.683935)"><g><path d="M 118.421875 -40.257812 C 110.839844 -31.410156 99.648438 -25.996094 86.46875 -25.996094 C 61.015625 -25.996094 42.964844 -46.753906 42.964844 -72.207031 C 42.964844 -97.664062 61.015625 -118.421875 86.46875 -118.421875 C 99.648438 -118.421875 110.839844 -113.007812 118.421875 -104.160156 L 138.820312 -124.378906 C 125.460938 -137.738281 106.867188 -146.042969 86.46875 -146.042969 C 45.671875 -146.042969 12.636719 -113.007812 12.636719 -72.207031 C 12.636719 -31.410156 45.671875 1.625 86.46875 1.625 C 106.867188 1.625 125.460938 -6.679688 138.820312 -20.039062 Z M 118.421875 -40.257812 "/></g></g></g><g fill="#d9d9d9" fill-opacity="0.4"><g transform="translate(209.644413, 188.683935)"><g><path d="M 72.570312 1.804688 L 75.820312 1.804688 C 106.867188 1.625 124.558594 -18.59375 125.824219 -38.632812 C 127.269531 -59.570312 111.382812 -83.039062 73.109375 -87.914062 L 72.75 -87.914062 C 58.851562 -89.539062 44.410156 -96.398438 45.128906 -106.507812 C 45.671875 -113.730469 56.503906 -120.40625 76.179688 -119.503906 L 76.722656 -119.503906 C 87.554688 -119.503906 100.550781 -114.269531 107.230469 -109.394531 L 122.753906 -131.058594 C 112.464844 -138.460938 94.414062 -146.042969 77.082031 -146.042969 C 38.8125 -148.027344 20.21875 -128.53125 18.59375 -108.675781 C 17.691406 -97.121094 22.566406 -85.746094 31.953125 -77.082031 C 41.160156 -68.597656 54.335938 -63.183594 69.863281 -61.558594 C 90.984375 -58.667969 99.828125 -48.921875 99.285156 -40.4375 C 98.746094 -32.675781 90.441406 -24.910156 75.457031 -24.910156 L 74.554688 -24.910156 C 74.375 -24.910156 54.699219 -23.828125 42.601562 -33.757812 C 39.535156 -36.105469 37.007812 -38.992188 34.660156 -42.421875 L 12.636719 -27.4375 C 16.246094 -22.023438 20.761719 -17.148438 25.816406 -12.996094 C 42.242188 0.359375 63.90625 1.804688 72.570312 1.804688 Z M 72.570312 1.804688 "/></g></g></g><g fill="#ffffff" fill-opacity="1"><g transform="translate(16.373373, 184.640611)"><g><path d="M 12.636719 -144.417969 L 39.714844 -144.417969 L 39.714844 -0.542969 L 12.636719 -0.542969 Z M 12.636719 -144.417969 "/></g></g></g><g fill="#ffffff" fill-opacity="1"><g transform="translate(68.723451, 184.640611)"><g><path d="M 118.421875 -40.257812 C 110.839844 -31.410156 99.648438 -25.996094 86.46875 -25.996094 C 61.015625 -25.996094 42.964844 -46.753906 42.964844 -72.207031 C 42.964844 -97.664062 61.015625 -118.421875 86.46875 -118.421875 C 99.648438 -118.421875 110.839844 -113.007812 118.421875 -104.160156 L 138.820312 -124.378906 C 125.460938 -137.738281 106.867188 -146.042969 86.46875 -146.042969 C 45.671875 -146.042969 12.636719 -113.007812 12.636719 -72.207031 C 12.636719 -31.410156 45.671875 1.625 86.46875 1.625 C 106.867188 1.625 125.460938 -6.679688 138.820312 -20.039062 Z M 118.421875 -40.257812 "/></g></g></g><g fill="#ffffff" fill-opacity="1"><g transform="translate(220.177633, 184.640611)"><g><path d="M 72.570312 1.804688 L 75.820312 1.804688 C 106.867188 1.625 124.558594 -18.59375 125.824219 -38.632812 C 127.269531 -59.570312 111.382812 -83.039062 73.109375 -87.914062 L 72.75 -87.914062 C 58.851562 -89.539062 44.410156 -96.398438 45.128906 -106.507812 C 45.671875 -113.730469 56.503906 -120.40625 76.179688 -119.503906 L 76.722656 -119.503906 C 87.554688 -119.503906 100.550781 -114.269531 107.230469 -109.394531 L 122.753906 -131.058594 C 112.464844 -138.460938 94.414062 -146.042969 77.082031 -146.042969 C 38.8125 -148.027344 20.21875 -128.53125 18.59375 -108.675781 C 17.691406 -97.121094 22.566406 -85.746094 31.953125 -77.082031 C 41.160156 -68.597656 54.335938 -63.183594 69.863281 -61.558594 C 90.984375 -58.667969 99.828125 -48.921875 99.285156 -40.4375 C 98.746094 -32.675781 90.441406 -24.910156 75.457031 -24.910156 L 74.554688 -24.910156 C 74.375 -24.910156 54.699219 -23.828125 42.601562 -33.757812 C 39.535156 -36.105469 37.007812 -38.992188 34.660156 -42.421875 L 12.636719 -27.4375 C 16.246094 -22.023438 20.761719 -17.148438 25.816406 -12.996094 C 42.242188 0.359375 63.90625 1.804688 72.570312 1.804688 Z M 72.570312 1.804688 "/></g></g></g></svg>